<svg xmlns="http://www.w3.org/2000/svg" viewBox="0 0 105.97 51.35"><defs><style>.cls-1{fill:none;stroke:#000;stroke-linecap:round;stroke-linejoin:round;}</style></defs><title>myMenuLogoBlack</title><g id="Layer_2" data-name="Layer 2"><path d="M80,61a4.22,4.22,0,0,0,1.2-1.32L82.11,58l1-1.64c.33-.54.66-1.05,1-1.53a6.52,6.52,0,0,1,.55-.5,1.41,1.41,0,0,1,.75-.28,1.55,1.55,0,0,1,1.22.85,6.2,6.2,0,0,1,.5,1.56c.1.58.2,1.15.28,1.72a2.48,2.48,0,0,0,.65,1.38,8,8,0,0,0,2.71-1.8c.73-.74,1.49-1.46,2.29-2.15a3.26,3.26,0,0,0,.72-.76,1.38,1.38,0,0,1,.94-.54c.35.1.53.26.55.46a1.19,1.19,0,0,1-.21.68,4.43,4.43,0,0,1-.55.68l-.47.46L91.79,59a15.58,15.58,0,0,1-2.4,2.11,2.7,2.7,0,0,0-.67.26A2,2,0,0,1,87,61.11a3.25,3.25,0,0,1-1-1.3,6.6,6.6,0,0,1-.5-1.82c-.09-.66-.18-1.28-.28-1.87a.78.78,0,0,0-.34.31c-.09.14-.17.28-.24.41-.27.42-.54.85-.8,1.3s-.53.89-.81,1.3-.66,1-1,1.69a3.27,3.27,0,0,1-1.45,1.43,1.18,1.18,0,0,1-.94.13,1.82,1.82,0,0,1-.83-.49,6.62,6.62,0,0,1-.73-2.13,24.18,24.18,0,0,1-.29-2.55c0-.9-.09-1.81-.13-2.73s-.1-1.81-.2-2.68a19.88,19.88,0,0,0-1.41,4c-.35,1.44-.71,2.89-1.09,4.34-.17.73-.34,1.47-.49,2.21s-.33,1.48-.52,2.21-.41,1.42-.65,2.08a8.61,8.61,0,0,1-.89,1.77,1.71,1.71,0,0,0-.41.23.64.64,0,0,1-.52.08,1,1,0,0,1-.76-.49,3.48,3.48,0,0,1-.44-1.07,8.82,8.82,0,0,1-.21-1.3c0-.45,0-.85,0-1.19a38,38,0,0,1,.13-5.2A41.75,41.75,0,0,1,70.93,55a16.37,16.37,0,0,1,.58-2.18,7.76,7.76,0,0,1,.46-.91,1.17,1.17,0,0,1,.78-.55,1,1,0,0,1,.89.91c.1.54.21,1.05.31,1.54.07.17.13.34.18.49a.25.25,0,0,1-.18.34c-.28,0-.44,0-.49-.26a5.43,5.43,0,0,0-.19-.57c-.07-.18-.14-.36-.2-.55a4.79,4.79,0,0,0-.21-.49,22.91,22.91,0,0,0-.78,3.12,35.58,35.58,0,0,0-.47,3.56c-.1,1.23-.16,2.48-.16,3.74a25.67,25.67,0,0,0,.26,3.67c.38-1,.74-2.19,1.07-3.46s.65-2.56,1-3.9.65-2.65,1-4A32.42,32.42,0,0,1,76,52a7.48,7.48,0,0,1,.7-1.38,1.13,1.13,0,0,1,1.33-.5,2.49,2.49,0,0,1,.72.94,4.58,4.58,0,0,1,.37,1.27,9.94,9.94,0,0,1,.1,1.46c0,.5,0,1,0,1.53.07,1,.15,2,.24,3A11.93,11.93,0,0,0,80,61Z" transform="translate(-70.02 -33.57)"/><path d="M104.53,61.21q.82-1,1.68-2.1A22,22,0,0,1,108.06,57a10.78,10.78,0,0,1,.91-1c.33-.33.67-.65,1-1l.54-.41a6,6,0,0,0,.55-.47,5.88,5.88,0,0,0,.57-.39.52.52,0,0,1,.68,0,.3.3,0,0,1-.11.39,1.46,1.46,0,0,0-.31.23,21.59,21.59,0,0,0-4.16,4q-1.81,2.3-3.54,4.68a90,90,0,0,1-2.13,9,69,69,0,0,1-3,8.37,19.45,19.45,0,0,1-1.3,2.44c-.25.38-.52.76-.81,1.12a2.85,2.85,0,0,1-1,.81,1.23,1.23,0,0,1-1.41-.13,2.11,2.11,0,0,1-.62-1.33A13.19,13.19,0,0,1,94.2,80a21.19,21.19,0,0,1,.91-2.94,36.83,36.83,0,0,1,3-6.32q1.74-2.88,3.62-5.64c.48-2.25,1-4.5,1.48-6.73a41.7,41.7,0,0,0,.91-7.36,2.14,2.14,0,0,0-.7.73c-.19.31-.38.62-.55.93-1,1.56-1.86,3.17-2.68,4.81a46.74,46.74,0,0,1-2.73,4.81c-.14.25-.3.52-.49.84a10.48,10.48,0,0,1-.65.93,4.9,4.9,0,0,1-.81.83,2,2,0,0,1-.91.47.88.88,0,0,1-.39,0,2.76,2.76,0,0,0-.44,0,1,1,0,0,1-.41-.28,2,2,0,0,0-.37-.34,5.52,5.52,0,0,1-.62-2,12.67,12.67,0,0,1-.11-2.32,20.18,20.18,0,0,1,.26-2.34A17.07,17.07,0,0,1,93,56.06a8.4,8.4,0,0,1,.52-1.19,1.3,1.3,0,0,1,1-.68.77.77,0,0,1,.78.7,5,5,0,0,1,.05,1.28.32.32,0,0,1-.31.13l-.31,0c-.1.52-.23,1.12-.37,1.8s-.25,1.37-.33,2.08a11.42,11.42,0,0,0-.08,2.1,6.21,6.21,0,0,0,.36,1.87A3.78,3.78,0,0,0,96,62.82c.43-.59.84-1.19,1.22-1.82q1.35-2.23,2.66-4.65c.86-1.61,1.8-3.18,2.8-4.71.07-.13.17-.3.29-.49s.25-.37.39-.55a3,3,0,0,1,.44-.44.74.74,0,0,1,.44-.18.93.93,0,0,1,.81.83,8.64,8.64,0,0,1,.13,1.56,30.82,30.82,0,0,1-.13,4.4C104.86,58.41,104.7,59.89,104.53,61.21ZM96.1,77.54c-.28.83-.52,1.69-.73,2.57a7.88,7.88,0,0,0-.1,2.84,37.87,37.87,0,0,0,3.27-7.18c.91-2.63,1.72-5.3,2.45-8v-.05a46.39,46.39,0,0,0-2.7,4.63A38.63,38.63,0,0,0,96.1,77.54Z" transform="translate(-70.02 -33.57)"/><path d="M135.88,78.84a.46.46,0,0,1,.47-.26,1.29,1.29,0,0,1,.57.1Q137.24,69,138,59.52t1.06-19.26c0-.91,0-1.82,0-2.76a8.63,8.63,0,0,0-.44-2.6,3.5,3.5,0,0,0-1.17,1.22c-.3.5-.6,1-.91,1.48s-.57,1-.86,1.51-.58,1-.86,1.56a69.05,69.05,0,0,0-3.43,7.2c-1.08,2.62-2.15,5.18-3.23,7.67-.38.8-.76,1.62-1.14,2.47a7.82,7.82,0,0,1-1.4,2.16,3.51,3.51,0,0,1-.76.57,3.28,3.28,0,0,1-1,.32h-.1a2.72,2.72,0,0,1-1.17-.6,4.08,4.08,0,0,1-.83-1,10,10,0,0,1-.63-1.22A12.67,12.67,0,0,1,120.7,57c-.73-1.74-1.38-3.49-2-5.28s-1.14-3.61-1.69-5.49c-.28-1-.53-1.92-.76-2.86a14.27,14.27,0,0,0-.91-2.65,17.68,17.68,0,0,0-1,3.3q-.33,1.8-.6,3.72c-.41,3.16-.74,6.36-1,9.62s-.5,6.59-.77,10a13.42,13.42,0,0,1-.27,1.92,6.89,6.89,0,0,1-.23.81.68.68,0,0,1-.65.44c-.42-.07-.61-.29-.57-.65s.05-.7.05-1q.21-6.35.7-12.24t1.38-11.62c.1-.66.22-1.31.34-1.95s.27-1.3.44-2a8.73,8.73,0,0,1,.29-.86,5.11,5.11,0,0,1,.44-.91,2.49,2.49,0,0,1,.6-.68,1.09,1.09,0,0,1,.8-.21,1.78,1.78,0,0,1,1.36.78,6.65,6.65,0,0,1,1.09,2.32q.36,1.38.78,2.73L119.4,47c.24.9.47,1.76.67,2.6.45,1.28.88,2.6,1.28,4s.84,2.65,1.32,3.9c.18.38.35.77.52,1.17a2.11,2.11,0,0,0,.84,1,2.93,2.93,0,0,0,1.27-1.22c.29-.54.58-1.09.86-1.64q2.07-4.22,3.9-8.58t4-8.42q.93-1.56,1.8-3.18a10.45,10.45,0,0,1,2.15-2.8,1.35,1.35,0,0,1,1.38,0,2.4,2.4,0,0,1,.86,1.09,6.51,6.51,0,0,1,.44,1.69c.09.64.15,1.25.18,1.84,0,2.12,0,4.16,0,6.14q-.36,8.37-.83,16.38t-.88,16.28c0,.48,0,1,0,1.45a5.08,5.08,0,0,1-.16,1.3,2.61,2.61,0,0,1-.52,1,1.65,1.65,0,0,1-1,.52,1,1,0,0,1-.7-.39,3.75,3.75,0,0,1-.39-.7,2.19,2.19,0,0,0-.37-.73A.71.71,0,0,1,135.88,78.84Z" transform="translate(-70.02 -33.57)"/><path d="M153.94,59c-.69.48-1.29.88-1.78,1.19,0,0-.86.57-1.9,1.17l-.47.26a6.66,6.66,0,0,1-2.68.86,3.45,3.45,0,0,1-2.44-.55,2.74,2.74,0,0,1-1.14-2,4.26,4.26,0,0,1,.1-1.66,14.56,14.56,0,0,1,.47-1.41,1.12,1.12,0,0,0-.47-.41.59.59,0,0,1-.31-.58.5.5,0,0,1,.57-.13l.57.24a22.13,22.13,0,0,1,1.67-2.11,4.38,4.38,0,0,1,2.33-1.43,1.57,1.57,0,0,1,1.07.16,1.25,1.25,0,0,1,.65.83,2.54,2.54,0,0,1-.34,1.48,3.85,3.85,0,0,1-.91,1.07,5.19,5.19,0,0,1-1.43.93,5,5,0,0,1-1.9.42,2.82,2.82,0,0,0-.33.78,6,6,0,0,0-.19,1,2.74,2.74,0,0,0,.08,1,1.48,1.48,0,0,0,.44.7,3.37,3.37,0,0,0,2.55.05c.84-.31,1.6-.62,2.29-.93a26.46,26.46,0,0,0,2.86-1.67l.57-.35Zm-7.61-3.07a6.55,6.55,0,0,0,1.56-.89,6.81,6.81,0,0,0,.63-.59,1,1,0,0,0,.26-.76,3.76,3.76,0,0,0-1.43.94A7.66,7.66,0,0,0,146.33,55.91Z" transform="translate(-70.02 -33.57)"/><path d="M175.18,69.53a.7.7,0,0,1-.7-.57l-.24-.94a16.79,16.79,0,0,1-.23-3.19c0-1.17,0-2.3.08-3.41,0-1.56.1-3.14.21-4.73s.22-3.17.36-4.73q-1.35,2.13-2.5,4.21a22,22,0,0,1-2.75,3.9l-1.25,1.22a2.72,2.72,0,0,1-1.61.75,1.69,1.69,0,0,1-.89-.13,2.64,2.64,0,0,1-.72-.39,4.63,4.63,0,0,1-1.2-3.27V57a12.35,12.35,0,0,1,.1-1.51,4.84,4.84,0,0,1,.37-1.3,1.06,1.06,0,0,1,.73-.68,1.45,1.45,0,0,1,1.37.42,1.5,1.5,0,0,1,.24,1.4.25.25,0,0,1-.29.19l-.34,0c0,.28-.07.62-.1,1s-.07.8-.1,1.14a11.12,11.12,0,0,0,.13,1.64c.08.61.28,1,.59,1s.42,0,.73-.24a5.09,5.09,0,0,0,.73-.6,12.36,12.36,0,0,0,1.69-2c.5-.73,1-1.44,1.48-2.13a25.53,25.53,0,0,0,1.38-2.27c.4-.74.84-1.51,1.33-2.31a4.46,4.46,0,0,0,.31-.52,2,2,0,0,1,.39-.55,1,1,0,0,1,.52-.28.7.7,0,0,1,.6.21,1.12,1.12,0,0,1,.33.75,6.93,6.93,0,0,1,.06,1.25c0,.47-.06.93-.11,1.38a10.5,10.5,0,0,0-.08,1.09c-.07,1-.13,1.88-.2,2.62s-.13,1.52-.16,2.32c-.07,1.63-.12,3.22-.16,4.78s0,3.07.11,4.53l.21.72C175.67,69.31,175.53,69.46,175.18,69.53Z" transform="translate(-70.02 -33.57)"/></g><g id="Layer_1" data-name="Layer 1"><path class="cls-1" d="M154,61V55.1a2.15,2.15,0,0,1,2-2.3h4.38a2.15,2.15,0,0,1,2,2.3V61" transform="translate(-70.02 -33.57)"/><rect x="86.85" y="21.31" width="4.03" height="0.33" rx="0.14"/><rect x="86.85" y="23.68" width="4.03" height="0.33" rx="0.14"/><rect x="86.85" y="26.04" width="4.09" height="0.33" rx="0.14"/><circle cx="85.76" cy="26.21" r="0.35"/><circle cx="85.76" cy="23.84" r="0.35"/><circle cx="85.76" cy="21.48" r="0.35"/></g></svg>